<?xml version="1.0" encoding="utf-8"?>
<!-- Generator: Adobe Illustrator 16.0.0, SVG Export Plug-In . SVG Version: 6.00 Build 0)  -->
<!DOCTYPE svg PUBLIC "-//W3C//DTD SVG 1.1//EN" "http://www.w3.org/Graphics/SVG/1.1/DTD/svg11.dtd">
<svg version="1.1" id="Layer_1" xmlns="http://www.w3.org/2000/svg" xmlns:xlink="http://www.w3.org/1999/xlink" x="0px" y="0px"
	 width="640px" height="320px" viewBox="0 0 640 320" enable-background="new 0 0 640 320" xml:space="preserve">
<g>
	<g>
		<ellipse fill="#F05A25" cx="240.293" cy="96.352" rx="17.673" ry="15.604"/>
		<path fill="#009F5B" d="M216.411,75.176c-55.886,11.305-87.73,48.562-84.546,69.897c0.796,24.679,39.805,28.819,71.171,13.215
			c0,0-43.308,5.255-45.696-21.335c1.274-47.129,57.956-60.663,57.956-60.663"/>
		<path opacity="0.8" fill="#0068AC" d="M180.029,139.261c0,0,66.633-28.421,87.411,4.061
			c20.778,32.481-63.767,100.548-130.639,101.503c38.69-17.594,98.238-51.666,95.054-88.288
			C228.379,127.832,180.029,139.261,180.029,139.261z"/>
	</g>
	<g>
		<path d="M316.353,113.563c5.875-1,14.125-1.75,25.75-1.75c11.75,0,20.125,2.25,25.75,6.75c5.375,4.25,9,11.25,9,19.5
			s-2.75,15.25-7.75,20c-6.5,6.125-16.125,8.875-27.375,8.875c-2.5,0-4.75-0.125-6.5-0.375v30.125h-18.875V113.563z
			 M335.229,151.813c1.625,0.375,3.625,0.5,6.375,0.5c10.125,0,16.375-5.125,16.375-13.75c0-7.75-5.375-12.375-14.875-12.375
			c-3.875,0-6.5,0.375-7.875,0.75V151.813z"/>
		<path d="M420.854,196.688l-1.125-6.125h-0.375c-4,4.875-10.25,7.5-17.5,7.5c-12.375,0-19.75-9-19.75-18.75
			c0-15.875,14.25-23.5,35.875-23.375v-0.875c0-3.25-1.75-7.875-11.125-7.875c-6.25,0-12.875,2.125-16.875,4.625l-3.5-12.25
			c4.25-2.375,12.625-5.375,23.75-5.375c20.375,0,26.875,12,26.875,26.375v21.25c0,5.875,0.25,11.5,0.875,14.875H420.854z
			 M418.604,167.813c-10-0.125-17.75,2.25-17.75,9.625c0,4.875,3.25,7.25,7.5,7.25c4.75,0,8.625-3.125,9.875-7
			c0.25-1,0.375-2.125,0.375-3.25V167.813z"/>
		<path d="M464.854,135.563l9.125,30c1,3.625,2.25,8.125,3,11.375h0.375c0.875-3.25,1.875-7.875,2.75-11.375l7.5-30h20.375
			l-14.25,40.25c-8.75,24.25-14.625,34-21.5,40.125c-6.625,5.75-13.625,7.75-18.375,8.375l-4-16.125
			c2.375-0.375,5.375-1.5,8.25-3.25c2.875-1.5,6-4.5,7.875-7.625c0.625-0.875,1-1.875,1-2.75c0-0.625-0.125-1.625-0.875-3.125
			l-22.375-55.875H464.854z"/>
	</g>
</g>
</svg>
